<svg width="78" height="75" viewBox="0 0 78 75" fill="none" xmlns="http://www.w3.org/2000/svg">
<path id="Vector" d="M45.1892 69.1636L47.2695 69.9271L51.1954 71.3282C53.723 72.1987 56.0056 72.9347 57.9771 73.4444C61.8508 74.5675 64.3237 75.0138 64.4859 74.5025C64.6481 73.9912 62.4705 72.6417 58.8252 70.8651C56.9973 69.9724 54.7995 68.9658 52.3453 67.9232L48.4791 66.3024L47.9447 66.086C50.3258 65.9559 52.6941 65.6411 55.0282 65.1443C57.7638 64.5831 60.4306 63.722 62.9803 62.5768C66.5841 61.0068 69.7945 58.6508 72.3762 55.6818C73.958 53.8227 75.2128 51.7087 76.0864 49.4307C76.557 48.1686 76.896 46.8617 77.0978 45.5309C77.2917 44.1214 77.34 42.6963 77.242 41.2782C76.5138 35.1847 73.7738 29.5177 69.4561 25.1747C65.1045 20.8295 60.011 17.298 54.4141 14.7457C49.0546 12.1541 43.7553 9.9374 38.5962 8.00085C29.92 4.60386 20.8531 2.29378 11.6012 1.12309C4.58043 0.353459 0.324886 0.85266 0.357836 1.13245C0.390785 1.41224 4.6404 1.66411 11.4441 2.98884C20.4023 4.79648 29.143 7.53678 37.5238 11.1651C42.4725 13.2663 47.7176 15.6534 52.7797 18.3003C57.799 20.7472 62.3521 24.0491 66.2364 28.059C69.6985 31.657 71.8804 36.2976 72.4474 41.2689C72.6544 45.3357 71.2529 49.3277 68.546 52.3813C66.3888 54.8714 63.7284 56.8753 60.7417 58.2597C58.4886 59.3253 56.1424 60.18 53.7335 60.8129C51.1675 61.4761 49.2077 61.9303 47.6551 62.2416C48.0157 61.5375 48.369 60.8632 48.7134 60.1995C49.854 57.9747 50.835 55.9394 51.5973 54.2059C52.2313 52.8116 52.7797 51.3801 53.2392 49.9196C53.3562 49.6008 53.3515 49.2506 53.2259 48.9362C53.1768 48.8306 53.0945 48.744 52.9915 48.6897C52.8885 48.6353 52.7704 48.6162 52.6553 48.6353C52.4923 48.6711 52.341 48.7481 52.2159 48.8589C52.147 48.8724 52.0801 48.8946 52.0168 48.9251C51.9655 49.0185 51.8961 49.1008 51.8127 49.1671C50.8297 50.2797 49.9182 51.4534 49.0837 52.6811C48.0046 54.2377 46.7577 56.1208 45.4527 58.243C44.801 59.3138 44.1243 60.4355 43.421 61.5887C43.0467 62.2453 42.6635 62.9125 42.2715 63.5901C41.8543 64.1053 41.607 64.7369 41.564 65.3974C41.521 66.0579 41.6845 66.7145 42.0317 67.2761C42.4307 67.8308 42.9886 68.2509 43.6321 68.4812L45.2723 69.1076" fill="#072333"/>
</svg>
