<svg width="178" height="86" viewBox="0 0 178 86" fill="none" xmlns="http://www.w3.org/2000/svg">
<g id="Pieces/Logos/Dark/Center/Disney">
<path id="Shape" fill-rule="evenodd" clip-rule="evenodd" d="M89.3888 26.3977C90.1536 26.4322 90.8841 26.714 91.4627 27.1978C92.2511 27.9178 92.4578 29.1184 92.0847 30.079C90.634 32.9596 87.1839 34.8837 84.8264 35.5203C83.4159 35.8403 81.6329 35.8403 80.3469 35.3603C79.7243 35.7203 79.199 36.8838 78.4388 36.4003C77.3385 35.5713 78.291 34.2739 77.6558 33.3533C77.5248 33.1637 77.1949 33.1498 77.029 32.8396C76.1576 30.999 77.2363 29.2384 78.4388 27.8384C80.4436 25.6806 86.1953 23.2765 89.3888 26.3977ZM82.4383 28.7742C81.362 28.98 80.1465 29.4639 79.4894 30.2568C78.8317 31.0492 78.4136 31.8218 78.8121 32.6452C80.2071 31.5748 80.8845 30.0922 82.4389 29.1865C82.4383 29.0212 82.6774 28.8977 82.4383 28.7742ZM89.4835 28.7928C86.4884 28.5573 84.2316 30.5946 82.1049 32.5525C81.9747 32.8658 81.1937 33.2182 81.8011 33.5706C84.6661 33.8055 87.4002 33.0621 89.4835 31.3381C90.0916 30.829 90.5243 30.1633 90.2218 29.4579C90.0916 29.1844 89.7854 28.9103 89.4835 28.7928ZM115.109 41.8026C116.446 44.9809 117.574 49.9915 115.109 53.0476C114.44 53.7808 113.27 54.4567 112.518 53.9029C109.759 51.7442 108.59 48.6474 106.876 45.8764C106.626 45.7542 106.626 46.0807 106.5 46.2029C105.873 49.0139 107.043 52.681 105.08 54.8805C104.327 55.0027 103.624 54.6255 103.366 53.9029C102.404 51.0104 103.406 47.9951 103.657 45.1025C104.243 43.6356 104.493 41.9248 105.789 40.8245C107.879 41.6391 108.882 43.9213 110.093 45.5919C110.972 46.8546 111.681 48.2808 112.684 49.4213C113.561 49.0547 113.13 47.9366 113.102 47.2619C112.767 44.6137 112.015 42.1692 111.304 39.6432C111.263 38.9915 110.887 37.8912 111.596 37.4839C113.48 38.2991 114.272 40.2135 115.109 41.8026ZM101.985 39.6804C101.985 40.3065 101.503 41.0885 101.1 41.1822C97.2438 41.8077 92.9451 41.4324 89.3298 42.6834C89.2093 43.1421 89.7315 43.2255 90.0126 43.3506C93.1052 43.8511 96.3602 43.9762 99.3736 44.7691C100.967 45.1891 101.544 47.1472 101.664 48.7735C101.738 50.056 101.263 51.6098 100.057 52.4861C97.0849 54.4466 92.5452 54.3626 89.5312 52.5701C88.3793 51.8993 87.2815 50.8187 87.2011 49.4836C87.2081 48.4236 87.6435 47.589 88.3665 47.1895C91.2594 45.9796 94.8345 46.648 97.3259 48.1903C97.4853 49.0249 96.6157 48.9796 96.1995 49.2751C93.4271 50.9438 91.3386 47.3992 88.7675 48.6907C88.4061 48.9409 88.1447 49.639 88.5667 49.859C91.7402 51.3191 95.2758 50.276 98.4091 49.3585C98.7706 49.2334 99.213 48.8581 99.2525 48.4828C99.132 47.1478 97.6862 46.8565 96.7618 46.4812C94.0301 45.7723 91.0173 45.7723 88.0842 45.4804C87.5219 45.3553 86.8053 44.9486 86.6383 44.4796C86.317 43.4788 86.317 42.102 87.0399 41.268C90.7757 37.8474 96.4399 38.1399 101.18 39.0573C101.502 39.18 101.864 39.3051 101.985 39.6804ZM83.9356 42.0142C84.3358 46.0303 84.5581 49.7548 84.4692 53.9801C84.3802 54.5232 83.7133 54.6493 83.2688 54.8585C82.5574 54.984 81.638 54.8415 81.3564 54.482C80.3338 52.9332 80.6895 50.8424 80.6006 48.9595C80.7339 45.9897 80.6895 42.7677 81.5793 40.0058C81.7494 39.6045 82.2462 39.2529 82.6463 39.5033C83.7134 40.0058 83.8912 41.0103 83.9356 42.0142ZM129.938 41.1708C130.138 41.4943 130.348 41.994 129.938 42.2108C128.061 43.0109 125.517 42.6509 123.348 42.8909C122.764 43.3709 122.305 44.1709 122.513 44.8915C122.722 45.0115 122.909 45.1941 123.139 45.1709C124.473 45.2515 126.476 44.5709 127.353 45.7709C127.566 46.128 127.324 47.4614 126.727 47.4915C125.1 47.6927 122.424 47.2956 121.638 47.6927C120.637 48.3327 120.72 49.5727 120.345 50.5739C121.054 51.0139 121.797 50.5635 122.638 50.4533C124.182 50.2133 125.893 49.7733 127.435 50.0933C127.727 50.6133 128.144 51.1739 127.852 51.8139C125.222 53.8146 121.831 55.8651 118.218 54.4146C116.862 53.8314 116.258 51.8539 116.717 50.1745C117.008 48.9739 118.301 47.8139 117.509 46.5333C117.384 45.9727 117.718 45.4932 118.219 45.3732C119.595 45.3732 119.302 43.7326 120.012 42.972C119.219 42.132 117.218 42.172 117.426 40.4914C118.386 40.0114 119.554 40.1714 120.637 40.0114C123.098 39.5308 125.85 39.2508 128.354 39.5308C128.853 39.627 129.521 40.5708 129.938 41.1708ZM70.2916 31.9738C74.1845 35.1304 79.2351 40.5111 78.6025 46.7043C77.8427 51.6011 72.6119 55.2834 68.1823 56.4554C63.8793 57.7106 58.4797 57.585 54.0917 56.5809C53.7964 57.3765 53.5012 58.3381 52.5734 58.6734C51.9829 58.8826 51.2232 58.7571 50.7593 58.3806C49.4518 57.1667 50.5062 54.8232 48.6077 54.0707C44.8951 52.5221 40.8873 49.4667 38.9895 45.7008C38.7364 44.9477 39.0316 44.1946 39.4956 43.6089C42.4068 41.3072 46.0767 40.3868 49.7471 39.6749C49.9579 39.7586 49.8736 39.4658 50.0423 39.3821C50.2532 36.8712 50.3375 34.3179 51.1388 32.0581C51.3216 31.741 51.7715 31.6397 52.0673 31.8489C54.3875 33.6061 53.2904 36.9131 54.3032 39.2978C58.7327 39.507 63.1623 39.7162 66.6634 42.1858C67.8449 43.1481 68.1328 44.9859 67.7599 46.0361C67.3877 47.0844 66.1573 47.8357 65.018 47.9181C64.2582 47.9181 62.8243 47.9915 62.9086 47.4167C62.993 46.8413 65.4892 45.8996 64.7227 45.1144C63.6207 43.986 58.1068 43.3148 54.6895 42.8964C54.2677 42.8128 53.8808 42.9383 53.8808 43.3985C53.7964 46.5787 53.5434 50.0937 54.0917 53.1497C54.1338 53.3594 54.3869 53.6105 54.5984 53.6511C60.6306 54.614 67.0008 54.0695 71.7256 50.6382C73.9193 48.8816 74.6369 46.4108 74.2567 43.6913C72.3582 36.1169 64.3853 31.5548 57.8464 28.6256C51.4768 25.8637 44.4312 24.4406 36.8801 24.8178C35.6778 24.9051 33.7726 25.3168 33.7586 25.7388C33.7445 26.1608 35.9168 26.028 35.6565 26.8266C35.3967 27.6245 33.1889 27.151 32.5349 26.9521C31.8809 26.7532 31.9445 25.8219 32.1132 25.2362C33.7586 22.3488 38.3501 22.1153 40.424 22.0141C51.898 21.7206 62.9936 26.0553 70.2916 31.9738ZM50.2426 43.2903C47.3706 43.3283 44.3328 43.5938 41.6695 44.5044C41.1286 44.6941 40.4624 45.2253 40.8784 45.8708C41.9601 47.1987 43.5074 48.289 44.9569 49.0583C46.4065 49.8264 48.3282 50.8041 50.0762 51.0323C50.4922 48.5651 50.4922 46.1364 50.4506 43.5938C50.2836 43.518 50.45 43.3662 50.2426 43.2903ZM136.416 38.6564C136.292 42.2098 132.957 44.4162 132.957 47.9696C133.08 48.0921 133.164 48.2555 133.327 48.175C136.004 45.2744 138.638 41.1486 142.549 39.9235C143.58 39.8419 144.511 40.7302 144.896 41.3943C146.255 44.0901 145.927 47.8891 144.033 50.34C142.078 52.7458 138.68 55.1599 134.812 54.751C133.207 58.6725 132.093 62.7982 131.476 67.0873C131.147 67.9449 130.365 67.169 129.871 67.0056C126.537 64.3915 129.275 57.4711 129.501 56.588C129.727 55.7074 130.619 53.63 131.272 51.8906C129.707 49.1137 130.695 45.7632 131.971 43.1899C132.959 41.4742 134.319 39.7584 135.924 38.4516C136.128 38.4522 136.292 38.493 136.416 38.6564ZM143.162 42.3298C142.639 42.2456 142.421 42.9203 141.986 43.0467C139.983 45.2382 137.979 47.4297 136.977 50.0426C138.328 50.2111 139.46 49.3684 140.637 48.905C142.639 47.6825 143.903 45.6608 143.772 43.3422C143.684 42.9618 143.336 42.6669 143.162 42.3298Z" fill="#12141D"/>
</g>
</svg>
