<svg width="178" height="86" viewBox="0 0 178 86" fill="none" xmlns="http://www.w3.org/2000/svg">
<g id="Pieces/Logos/Clients/Dark/Center/Dropbox">
<path id="Combined Shape" fill-rule="evenodd" clip-rule="evenodd" d="M20.0701 41.2853L29.1403 35.6426L38.2104 41.2382L29.1403 46.8809L38.1621 52.5705L47.2323 46.9279L38.1621 41.2853L47.2323 35.6426L38.1621 30L29.1403 35.6426L20.0701 30L11 35.6426L20.0701 41.2382L11 46.8809L20.0701 52.5705L29.1403 46.9279L20.0701 41.2853ZM29.092 48.7147L20.0219 54.3574L29.092 60L38.1621 54.3574L29.092 48.7147ZM122.19 51.1125L121.853 53.8339H118.388V34H122.335V41.6107C123.201 39.6734 124.934 38.6125 127.388 38.6125C131.094 38.6587 133.838 41.1033 133.838 46.0387V46.5C133.838 51.4354 131.239 54.2491 127.292 54.2491C124.693 54.203 123.008 53.0498 122.19 51.1125ZM54.2774 35.476H61.5933C66.262 35.476 70.1125 38.059 70.1125 43.9631V45.2085C70.1125 51.1587 66.5027 53.8339 61.7377 53.8339H54.2774V35.476ZM58.3685 38.797V50.4668H61.4971C64.1443 50.4668 65.9251 48.8063 65.9251 45.1162V44.1476C65.9251 40.4576 64.048 38.797 61.3527 38.797H58.3685ZM75.5513 38.9816H72.3265V53.8801H76.3695V47.0535C76.3695 43.917 77.1877 42.81 80.5088 42.81H82.1933V38.8432H81.1826C78.2947 38.8432 76.7064 40.0886 76.0807 42.441L75.5513 38.9816ZM83.0116 46.7306V46.3155C83.0116 41.3339 86.3326 38.6125 90.8569 38.6125C95.4775 38.6125 98.7022 41.3339 98.7022 46.3155V46.7306C98.7022 51.6199 95.5737 54.2491 90.8569 54.2491C85.8513 54.203 83.0116 51.6199 83.0116 46.7306ZM94.563 46.3155V46.6845C94.563 49.3598 93.1191 50.8358 90.8088 50.8819C88.4985 50.8819 87.0546 49.3598 87.0546 46.6845V46.3155C87.0546 43.4096 88.5466 41.8875 90.8088 41.8875C93.1191 41.8875 94.563 43.548 94.563 46.3155ZM100.82 38.9816H104.189L104.574 41.7952C105.392 39.9041 107.125 38.6125 109.676 38.6125C113.623 38.6125 116.222 41.3339 116.222 46.3616V46.7768C116.222 51.6661 113.334 54.2491 109.676 54.2491C107.221 54.2491 105.537 53.1882 104.719 51.4815V59H100.772L100.82 38.9816ZM112.131 46.3616V46.6845C112.131 49.452 110.687 50.8819 108.377 50.928C106.114 50.928 104.67 49.2675 104.67 46.6384V46.3616C104.67 43.5941 106.163 41.9336 108.425 41.9336C110.542 41.9336 112.131 43.4096 112.131 46.3616ZM125.992 41.8875C128.158 41.8875 129.699 43.4096 129.699 46.131V46.5C129.699 49.452 128.303 50.8819 125.944 50.8819C123.73 50.8819 122.238 49.2675 122.238 46.5V46.1771C122.238 43.5941 123.778 41.8875 125.992 41.8875ZM135.571 46.7306V46.3155C135.571 41.3339 138.892 38.6125 143.416 38.6125C148.036 38.6125 151.261 41.3339 151.261 46.3155V46.7306C151.261 51.6199 148.085 54.2491 143.416 54.2491C138.41 54.203 135.571 51.6199 135.571 46.7306ZM143.416 41.8875C145.726 41.8875 147.17 43.548 147.17 46.3155V46.6845C147.17 49.3598 145.726 50.8358 143.416 50.8819C141.106 50.8819 139.662 49.3598 139.662 46.6845V46.3155C139.662 43.4096 141.154 41.8875 143.416 41.8875ZM156.556 46.131L151.117 38.9816H155.785L158.914 43.4557L162.091 38.9816H166.711L161.176 46.0849L167 53.8339H162.428L158.866 48.8985L155.4 53.8339H150.635L156.556 46.131Z" fill="#12141D"/>
</g>
</svg>
