<svg width="190" height="29" viewBox="0 0 190 29" fill="none" xmlns="http://www.w3.org/2000/svg">
<g id="Logo">
<g id="Collaborate code wri">
<path d="M61.5281 18.1892C61.3559 19.6819 60.8296 20.9545 59.9493 22.007C59.0691 23.0595 57.873 23.8632 56.3612 24.4182C54.8494 24.9732 53.0506 25.2506 50.9647 25.2506C49.2233 25.2506 47.6253 25.0497 46.171 24.6478C44.7357 24.246 43.4918 23.6432 42.4393 22.8394C41.4059 22.0357 40.6022 21.0406 40.0281 19.8541C39.454 18.6485 39.167 17.242 39.167 15.6345C39.167 14.027 39.454 12.6205 40.0281 11.4148C40.6022 10.2092 41.4059 9.20457 42.4393 8.40083C43.4918 7.57795 44.7357 6.96558 46.171 6.56371C47.6253 6.1427 49.2233 5.9322 50.9647 5.9322C53.0506 5.9322 54.8494 6.21925 56.3612 6.79335C57.8922 7.36745 59.0978 8.19032 59.978 9.26197C60.8583 10.3145 61.375 11.5966 61.5281 13.1084H57.7391C57.4903 12.3047 57.0693 11.6158 56.476 11.0417C55.9019 10.4484 55.1556 9.99874 54.2371 9.69255C53.3185 9.38636 52.2277 9.23327 50.9647 9.23327C49.3955 9.23327 48.0177 9.48205 46.8312 9.9796C45.6447 10.458 44.7261 11.1756 44.0755 12.1325C43.4249 13.0702 43.0995 14.2375 43.0995 15.6345C43.0995 17.0123 43.4249 18.1701 44.0755 19.1078C44.7261 20.0455 45.6447 20.7631 46.8312 21.2606C48.0177 21.7391 49.3955 21.9783 50.9647 21.9783C52.2277 21.9783 53.3089 21.8252 54.2084 21.519C55.1269 21.2128 55.8732 20.7727 56.4473 20.1986C57.0406 19.6245 57.4711 18.9547 57.7391 18.1892H61.5281Z" fill="white"/>
<path d="M73.1756 25.2219C71.3767 25.2219 69.7884 24.9349 68.4106 24.3608C67.0519 23.7867 65.9898 22.9542 65.2243 21.8634C64.4589 20.7535 64.0761 19.3948 64.0761 17.7873C64.0761 16.1799 64.4589 14.8212 65.2243 13.7112C65.9898 12.5822 67.0519 11.7306 68.4106 11.1565C69.7884 10.5824 71.3767 10.2954 73.1756 10.2954C74.9744 10.2954 76.5436 10.5824 77.8832 11.1565C79.2419 11.7306 80.304 12.5822 81.0695 13.7112C81.8349 14.8212 82.2177 16.1799 82.2177 17.7873C82.2177 19.3948 81.8349 20.7535 81.0695 21.8634C80.304 22.9542 79.2419 23.7867 77.8832 24.3608C76.5436 24.9349 74.9744 25.2219 73.1756 25.2219ZM73.1756 22.3514C74.1707 22.3514 75.0606 22.1792 75.8452 21.8347C76.6489 21.4711 77.2804 20.9545 77.7397 20.2847C78.199 19.5958 78.4286 18.7633 78.4286 17.7873C78.4286 16.8114 78.199 15.9789 77.7397 15.29C77.2804 14.582 76.6585 14.0461 75.8739 13.6825C75.0893 13.3189 74.1898 13.1371 73.1756 13.1371C72.1805 13.1371 71.2811 13.3189 70.4773 13.6825C69.6736 14.0461 69.0325 14.5724 68.5541 15.2613C68.0948 15.9502 67.8652 16.7922 67.8652 17.7873C67.8652 18.7633 68.0948 19.5958 68.5541 20.2847C69.0134 20.9545 69.6449 21.4711 70.4486 21.8347C71.2524 22.1792 72.1614 22.3514 73.1756 22.3514Z" fill="white"/>
<path d="M91.9228 25.1932C90.4876 25.1932 89.1863 24.887 88.019 24.2747C86.8708 23.6432 85.9618 22.7724 85.292 21.6625C84.6222 20.5335 84.2873 19.2322 84.2873 17.7586C84.2873 16.2468 84.6126 14.936 85.2633 13.8261C85.9331 12.7161 86.8421 11.855 87.9903 11.2426C89.1385 10.6111 90.4493 10.2954 91.9228 10.2954C93.205 10.2954 94.2958 10.4867 95.1952 10.8695C96.0946 11.2522 96.8218 11.788 97.3768 12.4769C97.9317 13.1467 98.3336 13.9313 98.5824 14.8307C98.8503 15.7302 98.9843 16.7061 98.9843 17.7586C98.9843 18.6007 98.8503 19.4618 98.5824 20.3421C98.3145 21.2032 97.903 22.007 97.3481 22.7533C96.7931 23.4805 96.0659 24.0737 95.1665 24.533C94.2671 24.9732 93.1859 25.1932 91.9228 25.1932ZM93.1284 22.3227C94.2575 22.3227 95.2335 22.1314 96.0564 21.7486C96.8792 21.3659 97.5107 20.8301 97.9509 20.1412C98.391 19.4522 98.6111 18.6581 98.6111 17.7586C98.6111 16.7827 98.3815 15.9598 97.9222 15.29C97.482 14.6011 96.8505 14.0748 96.0276 13.7112C95.2239 13.3476 94.2575 13.1658 93.1284 13.1658C91.5401 13.1658 90.3058 13.5869 89.4255 14.4289C88.5452 15.2709 88.1051 16.3808 88.1051 17.7586C88.1051 18.6772 88.3156 19.4809 88.7366 20.1699C89.1576 20.8396 89.7413 21.3659 90.4876 21.7486C91.2531 22.1314 92.1333 22.3227 93.1284 22.3227ZM98.6111 4.87012H102.343V24.8775H98.8694C98.812 24.4373 98.7546 23.8728 98.6972 23.1839C98.6398 22.4758 98.6111 21.8156 98.6111 21.2032V4.87012Z" fill="white"/>
<path d="M119.368 20.1412H122.985C122.832 21.1171 122.42 21.9878 121.751 22.7533C121.1 23.5188 120.21 24.1216 119.081 24.5617C117.952 25.0019 116.574 25.2219 114.948 25.2219C113.13 25.2219 111.522 24.9349 110.125 24.3608C108.728 23.7675 107.637 22.916 106.853 21.806C106.068 20.6961 105.676 19.3566 105.676 17.7873C105.676 16.2181 106.059 14.8786 106.824 13.7687C107.59 12.6396 108.652 11.7784 110.01 11.1852C111.388 10.592 112.996 10.2954 114.833 10.2954C116.708 10.2954 118.268 10.592 119.512 11.1852C120.756 11.7784 121.674 12.6779 122.267 13.8835C122.88 15.0699 123.138 16.5913 123.042 18.4476H109.436C109.532 19.1748 109.8 19.835 110.24 20.4282C110.699 21.0214 111.312 21.4903 112.077 21.8347C112.862 22.1792 113.79 22.3514 114.861 22.3514C116.048 22.3514 117.033 22.1505 117.818 21.7486C118.622 21.3276 119.138 20.7918 119.368 20.1412ZM114.661 13.1371C113.283 13.1371 112.163 13.4433 111.302 14.0557C110.441 14.6489 109.886 15.3857 109.637 16.266H119.339C119.244 15.3092 118.784 14.5533 117.962 13.9983C117.158 13.4242 116.057 13.1371 114.661 13.1371Z" fill="white"/>
<path d="M129.666 13.9696H144.391V17.1558H129.666V13.9696ZM143.76 6.30537H147.577V24.8775H143.76V6.30537ZM126.307 6.30537H130.125V24.8775H126.307V6.30537Z" fill="white"/>
<path d="M168.002 24.8775H164.27V10.6111H168.002V24.8775ZM164.471 18.017L164.5 18.993C164.462 19.2609 164.366 19.6532 164.213 20.1699C164.06 20.6674 163.821 21.2032 163.495 21.7773C163.189 22.3514 162.787 22.9064 162.29 23.4422C161.792 23.9589 161.18 24.3895 160.453 24.7339C159.725 25.0593 158.864 25.2219 157.869 25.2219C157.084 25.2219 156.309 25.1262 155.544 24.9349C154.798 24.7435 154.118 24.4278 153.506 23.9876C152.894 23.5283 152.406 22.916 152.042 22.1505C151.678 21.385 151.497 20.4186 151.497 19.2513V10.6111H155.228V18.6198C155.228 19.5383 155.372 20.2655 155.659 20.8014C155.965 21.3181 156.405 21.6817 156.979 21.8922C157.553 22.1027 158.233 22.2079 159.017 22.2079C160.051 22.2079 160.941 21.9878 161.687 21.5477C162.433 21.0884 163.036 20.5335 163.495 19.8828C163.974 19.2322 164.299 18.6102 164.471 18.017Z" fill="white"/>
<path d="M182.393 25.1932C181.13 25.1932 180.049 24.9732 179.15 24.533C178.25 24.0737 177.523 23.4805 176.968 22.7533C176.413 22.007 176.002 21.2032 175.734 20.3421C175.466 19.4618 175.332 18.6007 175.332 17.7586C175.332 16.7061 175.456 15.7302 175.705 14.8307C175.973 13.9313 176.385 13.1467 176.939 12.4769C177.494 11.788 178.222 11.2522 179.121 10.8695C180.02 10.4867 181.111 10.2954 182.393 10.2954C183.867 10.2954 185.168 10.6111 186.297 11.2426C187.446 11.855 188.345 12.7161 188.996 13.8261C189.665 14.936 190 16.2468 190 17.7586C190 19.2322 189.665 20.5335 188.996 21.6625C188.326 22.7724 187.417 23.6432 186.269 24.2747C185.12 24.887 183.829 25.1932 182.393 25.1932ZM181.188 22.3227C182.202 22.3227 183.082 22.1314 183.829 21.7486C184.575 21.3659 185.149 20.8396 185.551 20.1699C185.972 19.4809 186.182 18.6772 186.182 17.7586C186.182 16.3808 185.742 15.2709 184.862 14.4289C184.001 13.5869 182.776 13.1658 181.188 13.1658C180.078 13.1658 179.112 13.3476 178.289 13.7112C177.466 14.0748 176.825 14.6011 176.365 15.29C175.925 15.9598 175.705 16.7827 175.705 17.7586C175.705 18.6581 175.925 19.4522 176.365 20.1412C176.806 20.8301 177.437 21.3659 178.26 21.7486C179.083 22.1314 180.059 22.3227 181.188 22.3227ZM175.705 4.87012V21.2032C175.705 21.8156 175.676 22.4758 175.619 23.1839C175.562 23.8728 175.504 24.4373 175.447 24.8775H171.974V4.87012H175.705Z" fill="white"/>
</g>
<g id="Vector">
<path d="M28.705 0H0V28.7053H28.705V0Z" fill="#0E0E10"/>
<path d="M28.6737 15.2496C28.6911 14.9885 28.705 14.6313 28.705 14.3526C28.705 14.0394 28.6925 13.7141 28.6651 13.3293C28.4044 9.71427 26.7844 6.33206 24.1306 3.86322C21.4771 1.39438 17.9869 0.022127 14.3625 0.0225575C10.7381 0.0229881 7.24824 1.39607 4.59523 3.86553C1.94224 6.33502 0.322909 9.71761 0.0630838 13.3328C-0.196742 16.9479 0.922213 20.5274 3.19481 23.3508C5.46741 26.1742 8.725 28.0323 12.3121 28.5509C15.8993 29.0697 19.5499 28.2107 22.5292 26.1467C25.5086 24.0828 27.5957 20.967 28.3707 17.4263C28.3707 17.4263 28.4163 17.2511 28.4542 17.0435C28.5482 16.5111 28.6491 15.7094 28.6737 15.2496ZM14.3527 26.9112C11.9069 26.9119 9.51408 26.1986 7.46804 24.8586C5.42201 23.5186 3.81177 21.6102 2.83504 19.368C1.8583 17.1256 1.55759 14.6469 1.96978 12.2361C2.38199 9.82526 3.48917 7.58727 5.15543 5.79687C6.82166 4.00646 8.97445 2.74155 11.3495 2.15745C13.7245 1.57334 16.2184 1.69544 18.525 2.50877C20.8316 3.32211 22.8505 4.79128 24.3339 6.73589C25.8173 8.68052 26.7005 11.016 26.8752 13.4555C26.8965 13.7522 26.9111 14.0505 26.9111 14.3526C26.9111 14.6547 26.8965 14.9529 26.8752 15.2496H15.8979C15.7004 15.5915 15.3957 15.8587 15.0309 16.0098C14.6661 16.1609 14.2616 16.1873 13.8802 16.0851C13.4989 15.9829 13.1619 15.7577 12.9215 15.4445C12.6812 15.1312 12.5509 14.7474 12.5509 14.3525C12.5509 13.9577 12.6812 13.5739 12.9215 13.2607C13.1619 12.9474 13.4989 12.7222 13.8802 12.62C14.2616 12.5178 14.6661 12.5442 15.0309 12.6953C15.3957 12.8464 15.7004 13.1136 15.8979 13.4555H25.077C24.8536 10.7646 23.6277 8.25581 21.642 6.42603C19.6565 4.59628 17.056 3.57907 14.3559 3.57592C11.6557 3.57277 9.0529 4.58391 7.06301 6.40905C5.07313 8.23417 3.84136 10.7401 3.61171 13.4305C3.38206 16.1208 4.1713 18.7993 5.82307 20.9353C7.47485 23.0713 9.86864 24.509 12.5303 24.9635C15.1919 25.4179 17.927 24.8561 20.1941 23.3894C22.4612 21.9227 24.0944 19.6579 24.7707 17.0438H26.618C26.0044 19.8403 24.4538 22.343 22.2231 24.1376C19.9924 25.9322 17.2156 26.9107 14.3527 26.9112ZM14.3527 8.97115C13.4077 8.96998 12.4791 9.21768 11.6601 9.68929C10.8413 10.1609 10.161 10.8398 9.68772 11.6578C9.21447 12.4757 8.96493 13.4039 8.96422 14.3489C8.9635 15.2939 9.21162 16.2224 9.68362 17.0411C10.1556 17.8597 10.8348 18.5398 11.653 19.0126C12.4712 19.4854 13.3995 19.7345 14.3445 19.7348C15.2895 19.7352 16.2179 19.4865 17.0363 19.0142C17.8548 18.5417 18.5344 17.8623 19.0069 17.0438H20.9959C20.3713 18.5875 19.2293 19.8659 17.7657 20.66C16.302 21.4541 14.6076 21.7144 12.9731 21.3963C11.3385 21.0782 9.86549 20.2014 8.80642 18.9164C7.74736 17.6312 7.16819 16.0179 7.16819 14.3526C7.16819 12.6874 7.74736 11.074 8.80642 9.78896C9.86549 8.50392 11.3385 7.6272 12.9731 7.30907C14.6076 6.99095 16.302 7.25122 17.7657 8.0453C19.2293 8.83936 20.3713 10.1178 20.9959 11.6615H19.0065C18.5355 10.8438 17.8573 10.1646 17.0401 9.69231C16.2231 9.22003 15.2964 8.97129 14.3527 8.97115Z" fill="#8E70EF"/>
</g>
</g>
</svg>
