<svg width="128" height="128" viewBox="0 0 128 128" fill="none" xmlns="http://www.w3.org/2000/svg">
<g id="Item">
<g id="Oval" filter="url(#filter0_d_1_1738)">
<circle cx="64" cy="49" r="38" fill="white"/>
<circle cx="64" cy="49" r="38" stroke="white" stroke-width="2"/>
</g>
<g id="github">
<path id="Shape" fill-rule="evenodd" clip-rule="evenodd" d="M44 49.6774C44 38.4919 52.5565 30 63.7419 30C74.9274 30 84 38.4919 84 49.6774C84 58.621 78.5323 66.2742 70.4677 68.9516C69.4435 69.1371 69.0726 68.5 69.0726 67.9758C69.0726 67.7574 69.0752 67.2441 69.0788 66.5567L69.0788 66.556L69.0788 66.5549C69.0859 65.1613 69.0968 63.0531 69.0968 61.2339C69.0968 59.3387 68.4677 58.129 67.7258 57.4919C72.2339 56.9839 76.9839 56.3629 76.9839 48.5806C76.9839 46.371 76.1935 45.2581 74.9032 43.8306C75.1129 43.3065 75.7984 41.1532 74.6935 38.3548C73.0081 37.8226 69.129 40.5323 69.129 40.5323C67.5161 40.0806 65.7823 39.8468 64.0645 39.8468C62.3468 39.8468 60.6129 40.0806 59 40.5323C59 40.5323 55.121 37.8306 53.4355 38.3548C52.3306 41.1452 53.0161 43.3065 53.2258 43.8306C51.9355 45.25 51.3226 46.3629 51.3226 48.5806C51.3226 56.3387 55.871 56.9919 60.379 57.4919C59.7984 58.0242 59.2742 58.9194 59.0887 60.2097C57.9355 60.7419 54.9758 61.6371 53.2097 58.5242C52.1048 56.6048 50.0968 56.4435 50.0968 56.4435C48.121 56.4194 49.9677 57.6855 49.9677 57.6855C51.2903 58.2903 52.2097 60.6371 52.2097 60.6371C53.3952 64.25 59.0403 63.0403 59.0403 63.0403C59.0403 64.1368 59.0505 65.6795 59.0576 66.7666L59.0576 66.7681L59.0576 66.7688L59.0576 66.7692C59.0615 67.36 59.0645 67.8159 59.0645 67.9919C59.0645 68.5161 58.7016 69.1532 57.6694 68.9677C49.629 66.2742 44 58.621 44 49.6774ZM55.2177 61.4355C54.9758 61.3871 54.8145 61.2016 54.871 61.0403C54.9274 60.879 55.1613 60.7984 55.371 60.8548C55.6129 60.9274 55.7661 61.1129 55.7177 61.2742C55.6694 61.4355 55.4274 61.5161 55.2177 61.4355ZM56.9597 61.6935C57.1935 61.6935 57.379 61.5645 57.379 61.4032C57.379 61.2177 57.1694 61.0887 56.9274 61.1129C56.6935 61.1129 56.5081 61.2419 56.5081 61.4032C56.5081 61.5887 56.6935 61.7177 56.9597 61.6935ZM58.4355 60.9032C58.2016 60.9597 58.0403 61.1129 58.0645 61.2984C58.0887 61.4597 58.2984 61.5645 58.5403 61.5081C58.7742 61.4516 58.9355 61.2984 58.9113 61.1371C58.8871 60.9839 58.6694 60.879 58.4355 60.9032ZM51.8387 57.8145C51.7339 57.8952 51.7581 58.0806 51.8952 58.2339C52.0242 58.3629 52.2097 58.4194 52.3145 58.3145C52.4194 58.2339 52.3952 58.0484 52.2581 57.8952C52.129 57.7661 51.9435 57.7097 51.8387 57.8145ZM51.1532 57.4758C50.9919 57.3952 50.9113 57.2661 50.9677 57.1613C51.0242 57.0806 51.1532 57.0565 51.3145 57.1048C51.4758 57.1855 51.5565 57.3145 51.5 57.4194C51.4435 57.5323 51.2823 57.5565 51.1532 57.4758ZM53.5806 60.0323C53.4516 60.1371 53.5 60.379 53.6855 60.5323C53.871 60.7177 54.1048 60.7419 54.2097 60.6129C54.3145 60.5081 54.2661 60.2661 54.1048 60.1129C53.9274 59.9274 53.6855 59.9032 53.5806 60.0323ZM52.6613 59.3226C52.5323 59.1371 52.5323 58.9274 52.6613 58.8468C52.7903 58.7419 53 58.8226 53.1129 59.0081C53.2419 59.1935 53.2419 59.4032 53.1129 59.5081C53.0081 59.5887 52.7903 59.5081 52.6613 59.3226Z" fill="black"/>
</g>
</g>
<defs>
<filter id="filter0_d_1_1738" x="0" y="0" width="128" height="128" filterUnits="userSpaceOnUse" color-interpolation-filters="sRGB">
<feFlood flood-opacity="0" result="BackgroundImageFix"/>
<feColorMatrix in="SourceAlpha" type="matrix" values="0 0 0 0 0 0 0 0 0 0 0 0 0 0 0 0 0 0 127 0" result="hardAlpha"/>
<feOffset dy="15"/>
<feGaussianBlur stdDeviation="12.5"/>
<feColorMatrix type="matrix" values="0 0 0 0 0 0 0 0 0 0 0 0 0 0 0 0 0 0 0.06 0"/>
<feBlend mode="normal" in2="BackgroundImageFix" result="effect1_dropShadow_1_1738"/>
<feBlend mode="normal" in="SourceGraphic" in2="effect1_dropShadow_1_1738" result="shape"/>
</filter>
</defs>
</svg>
