<svg width="178" height="86" viewBox="0 0 178 86" fill="none" xmlns="http://www.w3.org/2000/svg">
<g id="Pieces/Logos/Clients/Dark/Center/Google">
<path id="Logo" fill-rule="evenodd" clip-rule="evenodd" d="M45.4393 26H44.3996C41.457 26.1765 38.5733 27.1371 36.1996 28.8821C33.7278 30.6466 31.8054 33.1757 30.8049 36.0382C29.7063 39.1751 29.7259 42.7042 30.903 45.8215C32.1585 49.2133 34.7087 52.0954 37.9063 53.8011C40.5742 55.2519 43.6738 55.8205 46.6752 55.5264C49.7747 55.2715 52.8154 53.9776 55.0125 51.7817C58.3082 48.684 59.3283 43.8021 58.6221 39.4692H44.9096V43.508C47.0804 43.5211 49.2511 43.5167 51.4218 43.5124H51.4225C52.508 43.5102 53.5935 43.508 54.679 43.508C54.4436 45.5078 53.7178 47.5664 52.1484 48.9192C50.1474 50.8406 47.2833 51.6837 44.5369 51.5268C41.5943 51.4288 38.7498 50.0172 36.8862 47.7625C34.9441 45.449 34.1006 42.3121 34.5125 39.332C34.8853 36.3127 36.6116 33.4894 39.1618 31.8229C41.4962 30.2349 44.4977 29.7055 47.2833 30.2937C49.1666 30.6466 50.8929 31.6465 52.3249 32.9405C52.8516 32.3917 53.391 31.8558 53.9323 31.318L53.9323 31.318L53.9324 31.3179L53.9324 31.3179C54.3387 30.9142 54.7461 30.5095 55.1498 30.0976C52.5996 27.5293 49.0489 26.0784 45.4393 26ZM127.126 27.518H123.332C123.332 30.6386 123.334 33.7592 123.336 36.879C123.34 43.1165 123.344 49.3511 123.332 55.5769C124.277 55.6065 125.231 55.6027 126.181 55.5991H126.181H126.181H126.181C126.497 55.5978 126.812 55.5966 127.126 55.5966V27.518ZM76.0704 38.4004C73.863 36.858 70.967 36.3113 68.2938 36.7994C64.932 37.3656 61.9551 39.7671 60.902 42.9106C59.8489 45.8393 60.3147 49.2757 62.2386 51.7748C63.9397 54.0397 66.7344 55.4259 69.6101 55.5821C72.7491 55.7774 75.9691 54.4888 77.9335 52.0872C79.7561 49.9395 80.4447 46.9718 79.8979 44.2578C79.4726 41.9149 78.0753 39.7671 76.0704 38.4004ZM66.0661 42.2468C66.7952 41.3877 67.8078 40.7824 68.9013 40.5091C70.643 40.0795 72.5669 40.5677 73.8832 41.7391C75.9286 43.5549 76.3134 46.757 74.9768 49.0804C74.2072 50.4471 72.8099 51.482 71.21 51.7553C69.4886 52.0872 67.6255 51.521 66.3902 50.3105C64.2232 48.2018 64.1017 44.5116 66.0661 42.2468ZM88.7808 36.8009C91.8411 36.2344 95.1851 37.0548 97.4752 39.1253C101.204 42.3483 101.61 48.384 98.4277 52.0952C96.5024 54.4392 93.3813 55.7284 90.3008 55.5916C87.3622 55.5135 84.4641 54.1071 82.7211 51.7827C80.7553 49.2239 80.3297 45.7079 81.4443 42.7194C82.559 39.6722 85.4774 37.3478 88.7808 36.8009ZM89.3888 40.5122C88.2944 40.7856 87.2811 41.3912 86.5515 42.2311C84.6059 44.4578 84.687 48.091 86.7744 50.2201C88.0107 51.4897 89.936 52.1148 91.7195 51.7632C93.3003 51.4702 94.7189 50.4545 95.4891 49.0872C96.8064 46.7432 96.4213 43.5398 94.3541 41.7232C93.0368 40.5512 91.1115 40.0824 89.3888 40.5122ZM114.333 37.364C111.909 36.1269 108.917 36.5259 106.669 37.9626C103.951 39.6587 102.152 42.7914 102.093 46.0439C101.976 48.9172 103.227 51.8105 105.339 53.6861C107.431 55.5618 110.423 56.5196 113.14 55.7414C114.392 55.4421 115.428 54.6439 116.328 53.746C116.386 55.6017 116.386 57.6769 115.174 59.1934C114.04 60.6699 112.026 61.1089 110.286 60.7897C108.546 60.4704 107.157 59.0736 106.473 57.4374C106.014 57.6416 105.551 57.8343 105.091 58.0264L105.091 58.0264C104.336 58.3412 103.584 58.6544 102.856 59.0138C104.029 61.8672 106.669 64.1219 109.699 64.5809C112.534 65.0199 115.682 64.3614 117.735 62.2263C119.612 60.2908 120.277 57.4773 120.297 54.8235V37.2243C119.632 37.2143 118.972 37.2143 118.315 37.2143C117.657 37.2143 117.002 37.2143 116.347 37.2044C116.337 37.4837 116.337 37.7631 116.337 38.0399C116.337 38.3168 116.337 38.5911 116.328 38.8605C115.721 38.2819 115.096 37.7032 114.333 37.364ZM107.646 42.3325C108.409 41.3946 109.523 40.7162 110.716 40.5167C112.339 40.2174 114.059 40.8359 115.135 42.093C116.875 44.1283 117.09 47.3009 115.8 49.6355C115.037 51.0123 113.61 52.01 112.065 52.1697C110.423 52.3492 108.722 51.6309 107.666 50.3339C105.808 48.139 105.808 44.5673 107.646 42.3325ZM133.112 38.9413C135.448 36.755 139.049 36.0132 142.047 37.165C144.888 38.2386 146.699 40.952 147.613 43.7435C145.502 44.6215 143.396 45.4946 141.29 46.3678L141.288 46.3689C139.18 47.2425 137.073 48.1161 134.961 48.9946C135.545 50.1072 136.441 51.1223 137.648 51.5323C139.341 52.1374 141.365 51.9227 142.786 50.7905C143.351 50.361 143.798 49.7949 144.227 49.2483C144.761 49.6091 145.296 49.965 145.831 50.3209L145.832 50.322C146.368 50.6782 146.903 51.0345 147.438 51.3956C145.92 53.6796 143.37 55.2803 140.626 55.534C137.589 55.9049 134.358 54.7337 132.392 52.3521C129.161 48.6041 129.472 42.3184 133.112 38.9413ZM135.195 42.5527C134.533 43.5092 134.261 44.6805 134.28 45.8322L134.282 45.8316C137.103 44.6606 139.925 43.4895 142.747 42.2989C142.28 41.2058 141.151 40.5421 140.003 40.3664C138.154 40.0345 136.227 41.0301 135.195 42.5527Z" fill="#12141D"/>
</g>
</svg>
