<svg width="13" height="13" viewBox="0 0 13 13" fill="none" xmlns="http://www.w3.org/2000/svg">
<path opacity="0.9" d="M5.57031 1.42188C5.29688 1.69531 5.32422 2.10547 5.57031 2.37891L8.87891 5.49609H1.03125C0.648438 5.49609 0.375 5.79688 0.375 6.15234V7.02734C0.375 7.41016 0.648438 7.68359 1.03125 7.68359H8.87891L5.57031 10.8281C5.32422 11.1016 5.32422 11.5117 5.57031 11.7852L6.17188 12.3867C6.44531 12.6328 6.85547 12.6328 7.10156 12.3867L12.4336 7.05469C12.6797 6.80859 12.6797 6.39844 12.4336 6.125L7.10156 0.820312C6.85547 0.574219 6.44531 0.574219 6.17188 0.820312L5.57031 1.42188Z" fill="#181818"/>
</svg>
