<svg width="190" height="29" viewBox="0 0 190 29" fill="none" xmlns="http://www.w3.org/2000/svg">
<g id="Logo">
<g id="Collaborate code wri">
<path d="M61.5281 18.1895C61.3559 19.6821 60.8296 20.9547 59.9493 22.0072C59.0691 23.0597 57.873 23.8635 56.3612 24.4184C54.8494 24.9734 53.0506 25.2509 50.9647 25.2509C49.2233 25.2509 47.6253 25.0499 46.171 24.6481C44.7357 24.2462 43.4918 23.6434 42.4393 22.8397C41.4059 22.0359 40.6022 21.0408 40.0281 19.8543C39.454 18.6487 39.167 17.2422 39.167 15.6347C39.167 14.0272 39.454 12.6207 40.0281 11.4151C40.6022 10.2095 41.4059 9.20481 42.4393 8.40107C43.4918 7.57819 44.7357 6.96582 46.171 6.56395C47.6253 6.14295 49.2233 5.93244 50.9647 5.93244C53.0506 5.93244 54.8494 6.21949 56.3612 6.79359C57.8922 7.36769 59.0978 8.19057 59.978 9.26222C60.8583 10.3147 61.375 11.5969 61.5281 13.1087H57.7391C57.4903 12.3049 57.0693 11.616 56.476 11.0419C55.9019 10.4487 55.1556 9.99898 54.2371 9.69279C53.3185 9.38661 52.2277 9.23351 50.9647 9.23351C49.3955 9.23351 48.0177 9.48229 46.8312 9.97984C45.6447 10.4583 44.7261 11.1759 44.0755 12.1327C43.4249 13.0704 43.0995 14.2377 43.0995 15.6347C43.0995 17.0126 43.4249 18.1703 44.0755 19.108C44.7261 20.0457 45.6447 20.7633 46.8312 21.2609C48.0177 21.7393 49.3955 21.9785 50.9647 21.9785C52.2277 21.9785 53.3089 21.8254 54.2084 21.5192C55.1269 21.213 55.8732 20.7729 56.4473 20.1988C57.0406 19.6247 57.4711 18.9549 57.7391 18.1895H61.5281Z" fill="#181819"/>
<path d="M73.1756 25.2222C71.3767 25.2222 69.7884 24.9351 68.4106 24.361C67.0519 23.7869 65.9898 22.9545 65.2243 21.8637C64.4589 20.7538 64.0761 19.3951 64.0761 17.7876C64.0761 16.1801 64.4589 14.8214 65.2243 13.7115C65.9898 12.5824 67.0519 11.7308 68.4106 11.1567C69.7884 10.5826 71.3767 10.2956 73.1756 10.2956C74.9744 10.2956 76.5436 10.5826 77.8832 11.1567C79.2419 11.7308 80.304 12.5824 81.0695 13.7115C81.8349 14.8214 82.2177 16.1801 82.2177 17.7876C82.2177 19.3951 81.8349 20.7538 81.0695 21.8637C80.304 22.9545 79.2419 23.7869 77.8832 24.361C76.5436 24.9351 74.9744 25.2222 73.1756 25.2222ZM73.1756 22.3517C74.1707 22.3517 75.0606 22.1794 75.8452 21.835C76.6489 21.4714 77.2804 20.9547 77.7397 20.2849C78.199 19.596 78.4286 18.7636 78.4286 17.7876C78.4286 16.8116 78.199 15.9792 77.7397 15.2903C77.2804 14.5822 76.6585 14.0464 75.8739 13.6828C75.0893 13.3192 74.1898 13.1374 73.1756 13.1374C72.1805 13.1374 71.2811 13.3192 70.4773 13.6828C69.6736 14.0464 69.0325 14.5726 68.5541 15.2616C68.0948 15.9505 67.8652 16.7925 67.8652 17.7876C67.8652 18.7636 68.0948 19.596 68.5541 20.2849C69.0134 20.9547 69.6449 21.4714 70.4486 21.835C71.2524 22.1794 72.1614 22.3517 73.1756 22.3517Z" fill="#181819"/>
<path d="M91.9228 25.1935C90.4876 25.1935 89.1863 24.8873 88.019 24.2749C86.8708 23.6434 85.9618 22.7727 85.292 21.6628C84.6222 20.5337 84.2873 19.2324 84.2873 17.7589C84.2873 16.2471 84.6126 14.9362 85.2633 13.8263C85.9331 12.7164 86.8421 11.8552 87.9903 11.2429C89.1385 10.6114 90.4493 10.2956 91.9228 10.2956C93.205 10.2956 94.2958 10.487 95.1952 10.8697C96.0946 11.2524 96.8218 11.7883 97.3768 12.4772C97.9317 13.147 98.3336 13.9316 98.5824 14.831C98.8503 15.7304 98.9843 16.7064 98.9843 17.7589C98.9843 18.6009 98.8503 19.462 98.5824 20.3423C98.3145 21.2035 97.903 22.0072 97.3481 22.7535C96.7931 23.4807 96.0659 24.074 95.1665 24.5333C94.2671 24.9734 93.1859 25.1935 91.9228 25.1935ZM93.1284 22.323C94.2575 22.323 95.2335 22.1316 96.0564 21.7489C96.8792 21.3661 97.5107 20.8303 97.9509 20.1414C98.391 19.4525 98.6111 18.6583 98.6111 17.7589C98.6111 16.7829 98.3815 15.96 97.9222 15.2903C97.482 14.6013 96.8505 14.0751 96.0276 13.7115C95.2239 13.3479 94.2575 13.1661 93.1284 13.1661C91.5401 13.1661 90.3058 13.5871 89.4255 14.4291C88.5452 15.2711 88.1051 16.381 88.1051 17.7589C88.1051 18.6774 88.3156 19.4812 88.7366 20.1701C89.1576 20.8399 89.7413 21.3661 90.4876 21.7489C91.2531 22.1316 92.1333 22.323 93.1284 22.323ZM98.6111 4.87036H102.343V24.8777H98.8694C98.812 24.4376 98.7546 23.873 98.6972 23.1841C98.6398 22.4761 98.6111 21.8159 98.6111 21.2035V4.87036Z" fill="#181819"/>
<path d="M119.368 20.1414H122.985C122.832 21.1174 122.42 21.9881 121.751 22.7535C121.1 23.519 120.21 24.1218 119.081 24.562C117.952 25.0021 116.574 25.2222 114.948 25.2222C113.13 25.2222 111.522 24.9351 110.125 24.361C108.728 23.7678 107.637 22.9162 106.853 21.8063C106.068 20.6964 105.676 19.3568 105.676 17.7876C105.676 16.2184 106.059 14.8788 106.824 13.7689C107.59 12.6398 108.652 11.7787 110.01 11.1855C111.388 10.5922 112.996 10.2956 114.833 10.2956C116.708 10.2956 118.268 10.5922 119.512 11.1855C120.756 11.7787 121.674 12.6781 122.267 13.8837C122.88 15.0702 123.138 16.5916 123.042 18.4478H109.436C109.532 19.175 109.8 19.8352 110.24 20.4284C110.699 21.0217 111.312 21.4905 112.077 21.835C112.862 22.1794 113.79 22.3517 114.861 22.3517C116.048 22.3517 117.033 22.1507 117.818 21.7489C118.622 21.3279 119.138 20.792 119.368 20.1414ZM114.661 13.1374C113.283 13.1374 112.163 13.4436 111.302 14.0559C110.441 14.6492 109.886 15.3859 109.637 16.2662H119.339C119.244 15.3094 118.784 14.5535 117.962 13.9985C117.158 13.4244 116.057 13.1374 114.661 13.1374Z" fill="#181819"/>
<path d="M129.666 13.9698H144.391V17.1561H129.666V13.9698ZM143.76 6.30561H147.577V24.8777H143.76V6.30561ZM126.307 6.30561H130.125V24.8777H126.307V6.30561Z" fill="#181819"/>
<path d="M168.002 24.8777H164.27V10.6114H168.002V24.8777ZM164.471 18.0172L164.5 18.9932C164.462 19.2611 164.366 19.6534 164.213 20.1701C164.06 20.6677 163.821 21.2035 163.495 21.7776C163.189 22.3517 162.787 22.9066 162.29 23.4425C161.792 23.9592 161.18 24.3897 160.453 24.7342C159.725 25.0595 158.864 25.2222 157.869 25.2222C157.084 25.2222 156.309 25.1265 155.544 24.9351C154.798 24.7438 154.118 24.428 153.506 23.9879C152.894 23.5286 152.406 22.9162 152.042 22.1507C151.678 21.3853 151.497 20.4189 151.497 19.2515V10.6114H155.228V18.62C155.228 19.5386 155.372 20.2658 155.659 20.8016C155.965 21.3183 156.405 21.6819 156.979 21.8924C157.553 22.1029 158.233 22.2082 159.017 22.2082C160.051 22.2082 160.941 21.9881 161.687 21.5479C162.433 21.0887 163.036 20.5337 163.495 19.8831C163.974 19.2324 164.299 18.6105 164.471 18.0172Z" fill="#181819"/>
<path d="M182.393 25.1935C181.13 25.1935 180.049 24.9734 179.15 24.5333C178.25 24.074 177.523 23.4807 176.968 22.7535C176.413 22.0072 176.002 21.2035 175.734 20.3423C175.466 19.462 175.332 18.6009 175.332 17.7589C175.332 16.7064 175.456 15.7304 175.705 14.831C175.973 13.9316 176.385 13.147 176.939 12.4772C177.494 11.7883 178.222 11.2524 179.121 10.8697C180.02 10.487 181.111 10.2956 182.393 10.2956C183.867 10.2956 185.168 10.6114 186.297 11.2429C187.446 11.8552 188.345 12.7164 188.996 13.8263C189.665 14.9362 190 16.2471 190 17.7589C190 19.2324 189.665 20.5337 188.996 21.6628C188.326 22.7727 187.417 23.6434 186.269 24.2749C185.12 24.8873 183.829 25.1935 182.393 25.1935ZM181.188 22.323C182.202 22.323 183.082 22.1316 183.829 21.7489C184.575 21.3661 185.149 20.8399 185.551 20.1701C185.972 19.4812 186.182 18.6774 186.182 17.7589C186.182 16.381 185.742 15.2711 184.862 14.4291C184.001 13.5871 182.776 13.1661 181.188 13.1661C180.078 13.1661 179.112 13.3479 178.289 13.7115C177.466 14.0751 176.825 14.6013 176.365 15.2903C175.925 15.96 175.705 16.7829 175.705 17.7589C175.705 18.6583 175.925 19.4525 176.365 20.1414C176.806 20.8303 177.437 21.3661 178.26 21.7489C179.083 22.1316 180.059 22.323 181.188 22.323ZM175.705 4.87036V21.2035C175.705 21.8159 175.676 22.4761 175.619 23.1841C175.562 23.873 175.504 24.4376 175.447 24.8777H171.974V4.87036H175.705Z" fill="#181819"/>
</g>
<g id="Vector">
<path d="M28.705 0H0V28.7053H28.705V0Z" fill="white"/>
<path d="M28.6737 15.2496C28.6911 14.9885 28.705 14.6313 28.705 14.3526C28.705 14.0394 28.6925 13.7141 28.6651 13.3293C28.4044 9.71427 26.7844 6.33206 24.1306 3.86322C21.4771 1.39438 17.9869 0.022127 14.3625 0.0225575C10.7381 0.0229881 7.24824 1.39607 4.59523 3.86553C1.94224 6.33502 0.322909 9.71761 0.0630839 13.3328C-0.196742 16.9479 0.922213 20.5274 3.19481 23.3508C5.46741 26.1742 8.725 28.0323 12.3121 28.5509C15.8993 29.0697 19.5499 28.2107 22.5292 26.1467C25.5086 24.0828 27.5957 20.967 28.3707 17.4263C28.3707 17.4263 28.4163 17.2511 28.4542 17.0435C28.5482 16.5111 28.6491 15.7094 28.6737 15.2496ZM14.3527 26.9112C11.9069 26.9119 9.51408 26.1986 7.46804 24.8586C5.42201 23.5186 3.81177 21.6102 2.83504 19.368C1.8583 17.1256 1.55759 14.6469 1.96978 12.2361C2.38199 9.82526 3.48917 7.58727 5.15543 5.79687C6.82166 4.00646 8.97445 2.74155 11.3495 2.15745C13.7245 1.57334 16.2184 1.69544 18.525 2.50877C20.8316 3.32211 22.8505 4.79128 24.3339 6.73589C25.8173 8.68052 26.7005 11.016 26.8752 13.4555C26.8965 13.7522 26.9111 14.0505 26.9111 14.3526C26.9111 14.6547 26.8965 14.9529 26.8752 15.2496H15.8979C15.7004 15.5915 15.3957 15.8587 15.0309 16.0098C14.6661 16.1609 14.2616 16.1873 13.8802 16.0851C13.4989 15.9829 13.1619 15.7577 12.9215 15.4445C12.6812 15.1312 12.5509 14.7474 12.5509 14.3525C12.5509 13.9577 12.6812 13.5739 12.9215 13.2607C13.1619 12.9474 13.4989 12.7222 13.8802 12.62C14.2616 12.5178 14.6661 12.5442 15.0309 12.6953C15.3957 12.8464 15.7004 13.1136 15.8979 13.4555H25.077C24.8536 10.7646 23.6277 8.2558 21.642 6.42603C19.6565 4.59628 17.056 3.57907 14.3559 3.57592C11.6557 3.57277 9.0529 4.58391 7.06301 6.40905C5.07313 8.23417 3.84136 10.7401 3.61171 13.4305C3.38206 16.1208 4.1713 18.7993 5.82307 20.9353C7.47485 23.0713 9.86864 24.509 12.5303 24.9635C15.1919 25.4179 17.9271 24.8561 20.1941 23.3894C22.4612 21.9227 24.0944 19.6579 24.7707 17.0438H26.618C26.0044 19.8403 24.4538 22.343 22.2231 24.1376C19.9924 25.9322 17.2156 26.9107 14.3527 26.9112ZM14.3527 8.97115C13.4077 8.96998 12.4791 9.21768 11.6601 9.68929C10.8413 10.1609 10.161 10.8398 9.68772 11.6578C9.21447 12.4757 8.96493 13.4039 8.96422 14.3489C8.9635 15.2939 9.21162 16.2224 9.68362 17.0411C10.1556 17.8597 10.8348 18.5398 11.653 19.0126C12.4712 19.4854 13.3995 19.7345 14.3445 19.7348C15.2895 19.7352 16.2179 19.4865 17.0363 19.0142C17.8548 18.5417 18.5344 17.8623 19.0069 17.0438H20.9959C20.3713 18.5875 19.2293 19.8659 17.7657 20.66C16.302 21.4541 14.6076 21.7144 12.9731 21.3963C11.3385 21.0782 9.86549 20.2014 8.80642 18.9164C7.74736 17.6312 7.16819 16.0179 7.16819 14.3526C7.16819 12.6874 7.74736 11.074 8.80642 9.78896C9.86549 8.50392 11.3385 7.6272 12.9731 7.30907C14.6076 6.99095 16.302 7.25122 17.7657 8.0453C19.2293 8.83936 20.3713 10.1178 20.9959 11.6615H19.0065C18.5355 10.8438 17.8573 10.1646 17.0401 9.69231C16.2231 9.22003 15.2964 8.97129 14.3527 8.97115Z" fill="#8E70EF"/>
</g>
</g>
</svg>
