<svg width="19" height="13" viewBox="0 0 19 13" fill="none" xmlns="http://www.w3.org/2000/svg">
<g id="Group">
<g id="Group_2">
<g id="Group_3">
<path id="Vector" d="M0.392303 1.04278C2.96897 3.0346 7.49021 6.53881 8.81907 7.63143C8.99745 7.7789 9.18879 7.85387 9.38742 7.85387C9.58565 7.85387 9.77665 7.7796 9.95464 7.63283C11.2846 6.53914 15.8059 3.0346 18.3826 1.04278C18.543 0.919011 18.5675 0.701458 18.4376 0.550141C18.1373 0.200483 17.6897 0 17.2099 0H1.56491C1.08518 0 0.637503 0.200484 0.337301 0.550175C0.207423 0.701458 0.231881 0.919011 0.392303 1.04278Z" fill="url(#paint0_linear_1_1848)"/>
<path id="Vector_2" d="M18.5472 2.11922C18.4085 2.06031 18.2454 2.08086 18.1301 2.17083C15.2726 4.38191 11.6257 7.21605 10.4783 8.1598C9.83427 8.69043 8.94048 8.69043 8.29498 8.1591C7.07195 7.15326 2.97657 3.97538 0.643965 2.1708C0.527837 2.08083 0.364371 2.06098 0.226865 2.11919C0.0886267 2.17779 0 2.30401 0 2.44311V11.4214C0 12.209 0.701644 12.8494 1.56452 12.8494H17.2096C18.0724 12.8494 18.7741 12.209 18.7741 11.4214V2.44311C18.7741 2.30401 18.6854 2.17746 18.5472 2.11922Z" fill="url(#paint1_linear_1_1848)"/>
</g>
</g>
</g>
<defs>
<linearGradient id="paint0_linear_1_1848" x1="0.740404" y1="0.611224" x2="15.9868" y2="6.10656" gradientUnits="userSpaceOnUse">
<stop stop-color="#7967FF"/>
<stop offset="1" stop-color="#D978BA"/>
</linearGradient>
<linearGradient id="paint1_linear_1_1848" x1="0.5" y1="2.9236" x2="16.9997" y2="7.38349" gradientUnits="userSpaceOnUse">
<stop stop-color="#7967FF"/>
<stop offset="1" stop-color="#D978BA"/>
</linearGradient>
</defs>
</svg>
