<svg width="178" height="86" viewBox="0 0 178 86" fill="none" xmlns="http://www.w3.org/2000/svg">
<g id="Pieces/Logos/Clients/Dark/Center/Netflix">
<path id="Shape" fill-rule="evenodd" clip-rule="evenodd" d="M43.9741 59.7824C42.1171 60.104 40.2275 60.2004 38.2727 60.4572L32.3104 43.2346V61.1964C30.4535 61.3891 28.7593 61.6462 27 61.9032V29H31.9523L38.7288 47.669V29H43.9741V59.7824ZM54.2368 41.0495C56.2569 41.0495 59.352 40.9531 61.209 40.9531V46.0941C58.8957 46.0941 56.1917 46.0941 54.2368 46.1905V53.8381C57.2995 53.6454 60.362 53.3881 63.4569 53.2917V58.2397L49.0239 59.3646V29H63.4569V34.1411H54.2368V41.0495ZM82.8419 34.1413H77.4337V57.7904C75.6744 57.7904 73.9151 57.7904 72.2212 57.8545V34.1413H66.813V29H82.8422L82.8419 34.1413ZM91.3127 40.6962H98.4478V45.8372H91.3127V57.5013H86.1973V29H100.761V34.1411H91.3127V40.6962ZM109.232 53.0026C112.197 53.0667 115.194 53.292 118.093 53.4524V58.5293C113.435 58.24 108.776 57.9512 104.019 57.8545V29H109.232V53.0026ZM122.492 58.8828C124.153 58.9794 125.913 59.0758 127.607 59.2683V29H122.492V58.8828ZM150.445 29L143.832 44.6484L150.445 61.9032C148.49 61.6462 146.536 61.2927 144.581 60.9713L140.834 51.4604L137.023 60.2004C135.133 59.8788 133.308 59.7824 131.419 59.5253L138.13 44.4554L132.07 29H137.674L141.095 37.6435L144.744 29H150.445Z" fill="#12141D"/>
</g>
</svg>
