<svg width="128" height="128" viewBox="0 0 128 128" fill="none" xmlns="http://www.w3.org/2000/svg">
<g id="Item">
<g id="Oval" filter="url(#filter0_d_1_1753)">
<circle cx="64" cy="49" r="38" fill="white"/>
<circle cx="64" cy="49" r="38" stroke="white" stroke-width="2"/>
</g>
<g id="notion-2">
<path id="Shape" fill-rule="evenodd" clip-rule="evenodd" d="M58.7423 29.8655C52.4925 30.3279 47.1794 30.7532 46.9296 30.803C46.2292 30.9279 45.5921 31.403 45.2925 32.0283L45.03 32.5785L45.0553 45.6916L45.0925 58.8046L45.4925 59.6173C45.7178 60.0671 47.2427 62.1675 48.9051 64.3295C52.1929 68.592 52.43 68.8299 53.6798 68.9548C54.0427 68.992 56.7676 68.8671 59.7178 68.6924C62.6806 68.505 67.43 68.2173 70.2806 68.0552C70.7939 68.0241 71.2845 67.9943 71.7533 67.9659C81.0608 67.4017 81.8189 67.3557 82.3091 66.9697C82.3525 66.9354 82.3939 66.8985 82.4389 66.8584C82.4672 66.8331 82.497 66.8065 82.5296 66.7785C82.5882 66.73 82.6426 66.6901 82.6931 66.653C82.7524 66.6094 82.8063 66.5698 82.8554 66.5248C83.3486 66.0732 83.3506 65.0852 83.3732 54.1686C83.3751 53.2809 83.377 52.3275 83.3794 51.3034C83.4047 37.7904 83.3921 36.9034 83.1921 36.4908C82.9549 36.0283 82.5296 35.7034 76.9794 31.803C73.2672 29.203 73.0047 29.0655 71.3415 29.0402C70.6545 29.0157 64.9794 29.3904 58.7423 29.8655ZM72.7921 31.5777C73.317 31.8149 77.1549 34.49 77.717 35.003C77.8672 35.1532 77.917 35.2781 77.8419 35.3532C77.6672 35.5034 53.9162 36.9161 53.2292 36.8157C52.917 36.7659 52.4545 36.5785 52.1921 36.403C51.1043 35.6655 48.4047 33.4528 48.4047 33.2908L48.4047 33.2804C48.404 32.8654 48.404 32.8592 58.9051 32.1034C60.9304 31.9659 64.2553 31.7161 66.2806 31.5532C70.6672 31.203 71.9802 31.2157 72.7921 31.5777ZM80.717 39.2528C80.6672 38.9279 80.517 38.5904 80.3423 38.4157C80.3084 38.3818 80.2778 38.351 80.2446 38.3234C79.9104 38.0448 79.3122 38.0829 72.4688 38.5042C71.5008 38.5616 70.3128 38.633 69.028 38.7102C66.1146 38.8853 62.7033 39.0903 60.2308 39.2291C55.1557 39.5287 53.6806 39.6536 53.4553 39.8038C53.2925 39.9034 53.1051 40.2038 53.03 40.4536C52.9296 40.7912 52.9043 44.5414 52.9296 53.0165L52.9668 65.0916L53.2672 65.4165C53.4419 65.5912 53.7676 65.7912 54.0047 65.8536C54.517 66.0038 79.4047 64.5912 79.9288 64.3785C80.117 64.3161 80.3668 64.1034 80.4917 63.9034C80.7043 63.5785 80.717 62.8781 80.7541 51.6781C80.7794 45.1532 80.7541 39.5532 80.717 39.2528Z" fill="black"/>
<path id="Path" d="M73.6545 42.5534C72.3043 42.6411 71.1043 42.766 70.9668 42.8411C70.5541 43.0538 70.3043 43.404 70.2545 43.804C70.2174 44.2166 70.3423 44.2664 71.6917 44.4293L72.279 44.5044V49.8419C72.279 53.0166 72.2292 55.117 72.1668 55.0546C72.1043 54.9795 70.3296 52.2799 68.2166 49.0546C66.1043 45.8174 64.3541 43.1542 64.3288 43.1297C64.3035 43.1044 62.9288 43.1795 61.279 43.2925C59.2537 43.4301 58.1415 43.555 57.9162 43.6799C57.5533 43.8672 57.1533 44.5297 57.1533 44.9676C57.1533 45.2301 57.6284 45.3676 58.6284 45.3676H59.1533V60.7178L58.3035 60.9803C57.6411 61.1803 57.4158 61.3052 57.3035 61.555C57.1035 61.9803 57.1162 62.3676 57.3162 62.3676C57.3913 62.3676 58.8039 62.2799 60.4284 62.1803C63.6411 61.9929 64.0031 61.9052 64.3407 61.2427C64.4411 61.0427 64.528 60.8301 64.528 60.7676C64.528 60.7178 64.0909 60.5676 63.5652 60.4427C63.0276 60.3178 62.4901 60.1929 62.3778 60.1676C62.1652 60.1052 62.1525 59.7178 62.1525 54.3423V48.5795L65.9525 54.5423C69.9399 60.7921 70.4403 61.5052 71.0529 61.8174C71.8158 62.2174 73.7533 61.9423 74.728 61.3052L75.0284 61.1178L75.0537 52.5929L75.0909 44.0554L75.7533 43.9305C76.5407 43.7803 76.9035 43.4182 76.9035 42.7929C76.9035 42.3929 76.8782 42.3676 76.5035 42.3803C76.2798 42.3906 74.9921 42.4657 73.6545 42.5534Z" fill="black"/>
</g>
</g>
<defs>
<filter id="filter0_d_1_1753" x="0" y="0" width="128" height="128" filterUnits="userSpaceOnUse" color-interpolation-filters="sRGB">
<feFlood flood-opacity="0" result="BackgroundImageFix"/>
<feColorMatrix in="SourceAlpha" type="matrix" values="0 0 0 0 0 0 0 0 0 0 0 0 0 0 0 0 0 0 127 0" result="hardAlpha"/>
<feOffset dy="15"/>
<feGaussianBlur stdDeviation="12.5"/>
<feColorMatrix type="matrix" values="0 0 0 0 0 0 0 0 0 0 0 0 0 0 0 0 0 0 0.06 0"/>
<feBlend mode="normal" in2="BackgroundImageFix" result="effect1_dropShadow_1_1753"/>
<feBlend mode="normal" in="SourceGraphic" in2="effect1_dropShadow_1_1753" result="shape"/>
</filter>
</defs>
</svg>
