<svg width="314" height="20" viewBox="0 0 314 20" fill="none" xmlns="http://www.w3.org/2000/svg">
<path fill-rule="evenodd" clip-rule="evenodd" d="M92.009 6.88967C93.5159 6.88967 94.7424 8.08953 94.7424 9.79765C94.7424 11.5058 93.5178 12.7047 92.009 12.7047C90.502 12.7047 89.2756 11.4649 89.2756 9.79765C89.2756 8.11043 90.502 6.88967 92.009 6.88967ZM94.7644 13.5587V14.8802H97.2375V4.7151H94.7653V5.99571C94.0219 5.1027 92.9375 4.53269 91.6506 4.53269C88.9153 4.53269 86.7456 6.80892 86.7456 9.79765C86.7456 12.8054 88.8356 15.0417 91.5891 15.0417C92.9137 15.0417 94.021 14.4736 94.7644 13.5587ZM108.138 11.445C108.138 12.2981 108.378 12.623 109.244 12.623L109.243 12.6239H109.747V14.8812H108.44C106.39 14.8812 105.607 13.9862 105.607 11.9124V6.93147H102.344V14.8793H99.8105V6.93147H98.4034V4.7132H99.8105V3.74989C99.8105 1.63611 100.795 0.944507 102.885 0.944507H104.104V2.91578H103.549C102.664 2.91578 102.341 3.24163 102.341 4.09664V4.71415H105.605V2.23462H108.138V4.71415H109.727V6.93147H108.138V11.445ZM115.836 6.76807C117.082 6.76807 118.148 7.56133 118.328 8.88184H118.327H113.304C113.565 7.54042 114.589 6.76807 115.836 6.76807ZM115.876 12.8272C114.53 12.8272 113.465 11.9722 113.283 10.4684H120.983C121.023 10.2641 121.043 10.0418 121.043 9.8176C121.043 6.76807 118.873 4.53174 115.878 4.53174C112.903 4.53174 110.652 6.74812 110.652 9.8176C110.652 12.888 112.782 15.0417 115.816 15.0417C118.328 15.0417 120.238 13.6594 120.842 11.5048H118.248C117.766 12.318 116.941 12.8272 115.876 12.8272ZM134.415 6.88967C135.922 6.88967 137.149 8.15033 137.149 9.79765C137.149 11.445 135.922 12.7047 134.415 12.7047C132.908 12.7047 131.682 11.4649 131.682 9.79765C131.682 8.11043 132.908 6.88967 134.415 6.88967ZM131.661 4.7151H129.189V19.0631H131.741V13.6813C132.464 14.5344 133.509 15.0436 134.776 15.0436C137.509 15.0436 139.679 12.7664 139.679 9.77675C139.679 6.78992 137.549 4.53269 134.836 4.53269C133.509 4.53269 132.403 5.1008 131.661 6.03656V4.7151ZM145.855 6.88967C147.364 6.88967 148.588 8.08953 148.588 9.79765C148.588 11.5058 147.364 12.7047 145.855 12.7047C144.348 12.7047 143.122 11.4649 143.122 9.79765C143.122 8.11043 144.348 6.88967 145.855 6.88967ZM148.61 13.5587V14.8802H151.082V4.7151H148.61V5.99571C147.867 5.1027 146.782 4.53269 145.496 4.53269C142.761 4.53269 140.592 6.80892 140.592 9.79765C140.592 12.8054 142.682 15.0417 145.435 15.0417C146.76 15.0417 147.867 14.4736 148.61 13.5587ZM126.903 4.53364C125.363 4.53364 124.734 5.71166 124.734 5.71166V4.717H122.262V14.8821H124.814V8.86379C124.811 7.80168 125.351 7.00842 126.205 6.89157C127.059 6.77472 127.989 7.35517 127.989 7.35517V4.76165C127.989 4.76165 127.563 4.53364 126.903 4.53364ZM156.385 19.0308L162.626 4.7151H159.954L157.467 10.5824L155.043 4.7151H152.061L156.204 13.496L153.754 19.0308H156.385ZM176.36 0.873256L182.547 4.48424V4.48519C183.386 4.96323 183.908 5.87709 183.908 6.86972C183.908 7.86235 183.386 8.7762 182.547 9.25424L176.36 12.8662C174.544 13.9283 172.274 12.6011 172.274 10.4798V9.98955C172.274 9.52784 171.782 9.23999 171.388 9.47084L166.028 12.6002C165.846 12.7043 165.733 12.9028 165.733 13.1184C165.733 13.334 165.846 13.5325 166.028 13.6366L171.388 16.765C171.781 16.9959 172.274 16.708 172.274 16.2473V15.3258C172.274 14.9258 172.702 14.675 173.045 14.8755L174.213 15.5595C174.497 15.723 174.675 16.0327 174.677 16.3698V16.7403C174.677 18.8626 172.404 20.187 170.589 19.1267L164.401 15.5158C163.561 15.0375 163.039 14.1228 163.039 13.1293C163.039 12.1358 163.561 11.2212 164.401 10.7429L170.589 7.13097C172.406 6.06886 174.677 7.39602 174.677 9.5174V10.0076C174.677 10.4693 175.169 10.7562 175.563 10.5263L180.922 7.39792C181.316 7.16802 181.316 6.59232 180.922 6.36241L175.563 3.23308C175.169 3.00223 174.676 3.29103 174.676 3.75179V4.6733C174.676 5.07325 174.249 5.32405 173.906 5.12265L172.737 4.44054C172.451 4.27429 172.274 3.96459 172.274 3.63018V3.25968C172.274 1.13736 174.545 -0.186954 176.36 0.873256ZM244.277 3.46857L243.766 6.42812C242.234 5.58206 238.747 5.38188 238.746 6.94018C238.746 7.55924 239.535 7.98499 240.486 8.49814C241.928 9.27637 243.743 10.2556 243.743 12.415C243.743 15.8656 240.057 17.1334 237.614 17.1334C235.171 17.1334 233.573 16.3552 233.573 16.3552L234.105 13.2607C235.571 14.4401 240.013 14.7752 240.013 12.905C240.013 12.1191 239.138 11.6557 238.124 11.1183C236.725 10.3768 235.061 9.49445 235.061 7.43012C235.061 3.64589 239.28 2.86766 241.057 2.86766C242.7 2.86766 244.277 3.46857 244.277 3.46857ZM256.223 16.8957H252.935L252.516 14.8485H247.964L247.218 16.8957H243.486L248.826 4.14062C248.826 4.14062 249.149 3.11355 250.478 3.11355H253.356L256.223 16.8957ZM224.774 3.11392L221.361 12.5931L220.958 10.5526V10.5522L220.958 10.5517L219.753 4.35444C219.753 4.35444 219.607 3.11355 218.055 3.11355H212.412L212.346 3.34693L212.346 3.34728C212.346 3.34728 214.071 3.70708 216.091 4.92253L219.201 16.896H222.932L228.628 3.11392H224.774ZM231.367 16.8957H227.786L230.024 3.11392H233.605L231.367 16.8957ZM248.995 12.0206L250.877 6.86313L251.935 12.0206H248.995ZM55.4744 2.81758L53.6209 14.5838C53.6037 14.6921 53.6349 14.8025 53.7063 14.8859C53.7776 14.9693 53.8821 15.0174 53.992 15.0174H55.8554C56.1651 15.0174 56.4279 14.7933 56.4755 14.4883L58.3033 2.9342C58.3205 2.82581 58.2893 2.71536 58.2179 2.63186C58.1465 2.54837 58.0422 2.50019 57.9322 2.5H55.8455C55.6605 2.50065 55.5033 2.6352 55.4744 2.81758ZM34.9097 2.50066H39.4263C40.9378 2.50066 42.0756 2.89862 42.7168 3.65106C43.3012 4.33629 43.496 5.31472 43.2932 6.56C42.8442 9.40635 41.128 10.8427 38.1525 10.8427H36.7236C36.4147 10.8429 36.152 11.0673 36.1042 11.3718L35.5858 14.6471C35.5524 14.86 35.3687 15.017 35.1527 15.0174H32.8349C32.725 15.0174 32.6206 14.9693 32.5492 14.8859C32.4778 14.8025 32.4466 14.6921 32.4638 14.5838L34.2903 3.02908C34.3383 2.72489 34.601 2.50079 34.9097 2.50066ZM37.2651 8.33765C38.4629 8.33765 39.701 8.33765 39.9473 6.72077C40.0378 6.15282 39.9658 5.74168 39.7288 5.46495C39.3312 5.0011 38.5613 5.0011 37.7464 5.0011H37.4341C37.249 5.00087 37.0914 5.13547 37.063 5.31802L36.5843 8.33765H37.2651ZM52.9249 6.66872H50.7636C50.5784 6.66821 50.4206 6.80294 50.3925 6.98564L50.2967 7.58917L50.1449 7.37042C49.6767 6.69244 48.6334 6.46578 47.5914 6.46578C45.2016 6.46578 43.1612 8.27177 42.7637 10.8052C42.5576 12.0689 42.8502 13.2773 43.5686 14.12C44.2289 14.8948 45.1706 15.2177 46.2925 15.2177C48.218 15.2177 49.2858 13.9823 49.2858 13.9823L49.1894 14.5818C49.1719 14.6906 49.2032 14.8014 49.2749 14.8851C49.3466 14.9688 49.4515 15.0169 49.5618 15.0167H51.5091C51.818 15.0165 52.0807 14.7921 52.1285 14.4876L53.298 7.10226C53.3147 6.99368 53.2831 6.8832 53.2114 6.79985C53.1396 6.71649 53.035 6.66859 52.9249 6.66872ZM47.4705 12.9287C48.7212 12.9287 49.7031 12.1012 49.9104 10.8684C50.0062 10.2715 49.8755 9.72986 49.5446 9.34178C49.2158 8.95766 48.7166 8.75406 48.1025 8.75406C46.8709 8.75406 45.8751 9.60863 45.679 10.8308C45.5787 11.4304 45.6988 11.9687 46.0184 12.3469C46.3407 12.7278 46.8439 12.9287 47.4705 12.9287ZM2.69858 2.50066H7.2146C8.7261 2.50066 9.86452 2.89862 10.5064 3.65106C11.0908 4.33629 11.2842 5.31472 11.0822 6.56C10.6338 9.40635 8.91694 10.8427 5.94214 10.8427H4.51252C4.20367 10.8429 3.94091 11.0673 3.89312 11.3718L3.40051 14.4883C3.35269 14.793 3.08955 15.0175 2.78046 15.0174H0.624472C0.514402 15.0175 0.409777 14.9696 0.338144 14.8862C0.266512 14.8028 0.23505 14.6923 0.252044 14.5838L2.07853 3.02908C2.12665 2.72465 2.3897 2.50046 2.69858 2.50066ZM5.05333 8.33765C6.25051 8.33765 7.48864 8.33765 7.7356 6.72077C7.82607 6.15282 7.75343 5.74168 7.51637 5.46495C7.11885 5.0011 6.34956 5.0011 5.53405 5.0011H5.22171C5.03653 5.0011 4.87886 5.13551 4.84995 5.31802L4.37186 8.33765H5.05333ZM20.7138 6.66872H18.5512C18.366 6.66872 18.2084 6.80313 18.1794 6.98564L18.0837 7.58917L17.9325 7.37042C17.4643 6.69244 16.4203 6.46578 15.3783 6.46578C12.9886 6.46578 10.9475 8.27177 10.5499 10.8052C10.3433 12.0689 10.6371 13.2773 11.3556 14.12C12.0146 14.8948 12.9575 15.2177 14.0794 15.2177C16.005 15.2177 17.0727 13.9823 17.0727 13.9823L16.9763 14.5818C16.9589 14.6903 16.99 14.801 17.0614 14.8846C17.1328 14.9683 17.2373 15.0165 17.3474 15.0167H19.2954C19.6045 15.0168 19.8676 14.7923 19.9155 14.4876L21.0842 7.10226C21.1017 6.99401 21.0706 6.88358 20.9993 6.80016C20.928 6.71673 20.8237 6.66868 20.7138 6.66872ZM15.2594 12.9287C16.5101 12.9287 17.4907 12.1012 17.6994 10.8684C17.7938 10.2715 17.6631 9.72986 17.3336 9.34178C17.0047 8.95766 16.5055 8.75406 15.8914 8.75406C14.6599 8.75406 13.6628 9.60863 13.468 10.8308C13.3663 11.4304 13.4878 11.9687 13.8074 12.3469C14.1296 12.7278 14.6315 12.9287 15.2594 12.9287ZM32.2313 6.66872H30.0582C29.8501 6.66905 29.6556 6.77187 29.5385 6.94347L26.5412 11.3487L25.2708 7.11544C25.1907 6.85033 24.946 6.66885 24.6685 6.66872H22.533C22.4114 6.6684 22.2971 6.72673 22.2262 6.82534C22.1553 6.92394 22.1365 7.05065 22.1758 7.16551L24.5695 14.1747L22.3191 17.3445C22.2375 17.4591 22.2269 17.6095 22.2916 17.7343C22.3562 17.8592 22.4853 17.9376 22.6261 17.9375H24.7966C25.0023 17.9378 25.1951 17.8373 25.3124 17.6687L32.5404 7.25841C32.6202 7.14362 32.6296 6.99408 32.5647 6.87025C32.4998 6.74642 32.3714 6.66878 32.2313 6.66872ZM313.753 8.8125C313.753 13.4034 309.983 17.125 305.332 17.125C303.443 17.1277 301.609 16.5015 300.126 15.3477C302.086 13.8257 303.344 11.464 303.344 8.8125C303.344 6.16103 302.086 3.79935 300.126 2.27729C301.609 1.12351 303.443 0.497304 305.332 0.500009C309.983 0.500009 313.753 4.22158 313.753 8.8125ZM296.91 8.8125C296.91 6.16117 298.168 3.79935 300.126 2.27729C298.644 1.12347 296.81 0.497256 294.922 0.500009C290.271 0.500009 286.5 4.22158 286.5 8.8125C286.5 13.4034 290.271 17.125 294.922 17.125C296.81 17.1278 298.644 16.5016 300.126 15.3477C298.168 13.8259 296.91 11.464 296.91 8.8125Z" fill="#C4C4C4"/>
</svg>
