<svg width="130" height="36" viewBox="0 0 130 36" fill="none" xmlns="http://www.w3.org/2000/svg">
<g id="Shape">
<g id="Group">
<path id="Vector" d="M0 1C7.19819 1 7.19823 8.81086 14.3964 8.81086C21.5946 8.81086 21.5946 1 28.7928 1C35.991 1 35.991 8.81086 43.1892 8.81086C50.3874 8.81086 50.3874 1 57.5856 1C64.7838 1 64.7837 8.81086 71.9819 8.81086C79.1801 8.81086 79.1802 1 86.3784 1C93.5766 1 93.5765 8.81086 100.775 8.81086C107.973 8.81086 107.973 1 115.171 1C122.369 1 122.369 8.81086 129.568 8.81086" stroke="black" stroke-width="1.2" stroke-miterlimit="10"/>
</g>
<g id="Group_2">
<path id="Vector_2" d="M0 14.1713C7.19819 14.1713 7.19823 21.982 14.3964 21.982C21.5946 21.982 21.5946 14.1713 28.7928 14.1713C35.991 14.1713 35.991 21.982 43.1892 21.982C50.3874 21.982 50.3874 14.1713 57.5856 14.1713C64.7838 14.1713 64.7837 21.982 71.9819 21.982C79.1801 21.982 79.1802 14.1713 86.3784 14.1713C93.5766 14.1713 93.5765 21.982 100.775 21.982C107.973 21.982 107.973 14.1713 115.171 14.1713C122.369 14.1713 122.369 21.982 129.568 21.982" stroke="black" stroke-width="1.2" stroke-miterlimit="10"/>
</g>
<g id="Group_3">
<path id="Vector_3" d="M0 27.1892C7.19819 27.1892 7.19823 35 14.3964 35C21.5946 35 21.5946 27.1892 28.7928 27.1892C35.991 27.1892 35.991 35 43.1892 35C50.3874 35 50.3874 27.1892 57.5856 27.1892C64.7838 27.1892 64.7837 35 71.9819 35C79.1801 35 79.1802 27.1892 86.3784 27.1892C93.5766 27.1892 93.5765 35 100.775 35C107.973 35 107.973 27.1892 115.171 27.1892C122.369 27.1892 122.369 35 129.568 35" stroke="black" stroke-width="1.2" stroke-miterlimit="10"/>
</g>
</g>
</svg>
