<svg width="178" height="86" viewBox="0 0 178 86" fill="none" xmlns="http://www.w3.org/2000/svg">
<g id="Pieces/Logos/Clients/Dark/Center/Spotify">
<path id="Shape" fill-rule="evenodd" clip-rule="evenodd" d="M39.9948 24C28.3999 24 19 33.402 19 44.9996C19 56.5985 28.3999 66 39.9948 66C51.5901 66 60.9895 56.5985 60.9895 44.9996C60.9895 33.4027 51.5906 24.001 39.9945 24.001L39.9948 24ZM49.6228 54.2875C49.2458 54.9061 48.44 55.1 47.8235 54.7231C42.8934 51.7091 36.6879 51.0283 29.3799 52.6981C28.6757 52.8596 27.9737 52.418 27.8133 51.7139C27.6521 51.0095 28.0915 50.3073 28.7975 50.1468C36.795 48.318 43.655 49.1052 49.1888 52.4875C49.8056 52.8662 50.0011 53.6711 49.6226 54.288L49.6228 54.2875ZM52.1925 48.5703C51.7177 49.3409 50.7104 49.5826 49.941 49.1094C44.2988 45.6403 35.6954 44.6355 29.0204 46.6622C28.1547 46.9238 27.2404 46.4358 26.9777 45.5714C26.7169 44.7055 27.2051 43.7927 28.0692 43.5294C35.6939 41.2153 45.1725 42.3362 51.6533 46.3197C52.4229 46.7936 52.6661 47.8017 52.1923 48.5705L52.1925 48.5703ZM52.4132 42.6161C45.6456 38.5961 34.4827 38.2264 28.0223 40.1877C26.9849 40.5024 25.8878 39.9166 25.5735 38.8789C25.2591 37.8408 25.8442 36.7442 26.8824 36.4287C34.2985 34.1768 46.6269 34.6119 54.4173 39.2378C55.3504 39.7917 55.6565 40.9971 55.1034 41.9292C54.5519 42.8626 53.3435 43.1703 52.4134 42.6161H52.4132ZM76.1198 43.3864C72.4948 42.5218 71.8495 41.915 71.8495 40.6398C71.8495 39.4351 72.9835 38.6244 74.6697 38.6244C76.3043 38.6244 77.9251 39.24 79.6244 40.5074C79.6758 40.5458 79.7402 40.5611 79.8036 40.551C79.8671 40.5415 79.9232 40.5066 79.9603 40.4542L81.7303 37.9586C81.803 37.8558 81.7832 37.7141 81.6852 37.6356C79.6628 36.0124 77.3854 35.2233 74.7234 35.2233C70.8094 35.2233 68.0754 37.5727 68.0754 40.9342C68.0754 44.539 70.4338 45.8154 74.5093 46.8006C77.978 47.5998 78.5634 48.2694 78.5634 49.4663C78.5634 50.7926 77.3796 51.6171 75.4745 51.6171C73.3586 51.6171 71.6327 50.9042 69.702 49.2318C69.6541 49.1904 69.5884 49.1716 69.5278 49.1751C69.4638 49.1804 69.4054 49.21 69.3648 49.2589L67.3802 51.6214C67.297 51.7194 67.3075 51.8658 67.4038 51.9506C69.6501 53.9565 72.4129 55.016 75.3943 55.016C79.6119 55.016 82.3373 52.7109 82.3373 49.1433C82.3448 46.1316 80.5423 44.464 76.1273 43.3897L76.1198 43.3864ZM91.8791 39.8105C90.051 39.8105 88.5515 40.5307 87.315 42.0065V40.3454C87.315 40.2143 87.2087 40.1074 87.0778 40.1074H83.832C83.7009 40.1074 83.5948 40.2143 83.5948 40.3454V58.8023C83.5948 58.9334 83.7008 59.0402 83.832 59.0402H87.0778C87.2087 59.0402 87.315 58.9334 87.315 58.8023V52.9762C88.5517 54.3645 90.0515 55.0428 91.8791 55.0428C95.2759 55.0428 98.7146 52.4273 98.7146 47.4275C98.7196 42.4265 95.2799 39.8103 91.8829 39.8103L91.8791 39.8105ZM94.9402 47.4275C94.9402 49.9736 93.3723 51.7502 91.1272 51.7502C88.9077 51.7502 87.2335 49.8928 87.2335 47.4275C87.2335 44.9625 88.9077 43.1048 91.1272 43.1048C93.3359 43.1046 94.9405 44.9221 94.9405 47.4273L94.9402 47.4275ZM107.528 39.8105C103.154 39.8105 99.7264 43.1798 99.7264 47.4819C99.7264 51.7372 103.13 55.0711 107.474 55.0711C111.865 55.0711 115.302 51.7131 115.302 47.4275C115.302 43.1567 111.888 39.811 107.528 39.811L107.528 39.8105ZM107.528 51.7756C105.201 51.7756 103.447 49.9056 103.447 47.4263C103.447 44.9364 105.141 43.1297 107.474 43.1297C109.816 43.1297 111.582 44.9996 111.582 47.4807C111.582 49.9701 109.877 51.7756 107.528 51.7756H107.528ZM124.644 40.1074H121.072V36.4548C121.072 36.3239 120.966 36.2171 120.835 36.2171H117.59C117.458 36.2171 117.352 36.3239 117.352 36.4548V40.1074H115.791C115.66 40.1074 115.555 40.2143 115.555 40.3454V43.1357C115.555 43.2666 115.66 43.3737 115.791 43.3737H117.352V50.5935C117.352 53.5111 118.804 54.9904 121.667 54.9904C122.831 54.9904 123.797 54.7499 124.707 54.2336C124.781 54.1922 124.827 54.1125 124.827 54.0277V51.3706C124.827 51.2886 124.785 51.2111 124.714 51.1682C124.644 51.1238 124.556 51.1216 124.483 51.1574C123.858 51.4722 123.254 51.6173 122.578 51.6173C121.536 51.6173 121.072 51.1444 121.072 50.0844V43.3749H124.644C124.775 43.3749 124.88 43.2681 124.88 43.137V40.3469C124.885 40.2158 124.78 40.109 124.647 40.109L124.644 40.1074ZM137.089 40.1217V39.6731C137.089 38.3533 137.595 37.7648 138.729 37.7648C139.406 37.7648 139.949 37.8992 140.558 38.1023C140.633 38.1259 140.711 38.1141 140.772 38.0692C140.835 38.0243 140.87 37.9523 140.87 37.8761V35.1403C140.87 35.0357 140.803 34.9432 140.702 34.9123C140.059 34.721 139.236 34.5246 138.005 34.5246C135.007 34.5246 133.422 36.2133 133.422 39.4063V40.0934H131.862C131.732 40.0934 131.624 40.2002 131.624 40.3311V43.1357C131.624 43.2666 131.732 43.3736 131.862 43.3736H133.422V54.5099C133.422 54.641 133.528 54.7479 133.659 54.7479H136.904C137.036 54.7479 137.142 54.641 137.142 54.5099V43.3744H140.173L144.815 54.5079C144.288 55.6777 143.77 55.9104 143.062 55.9104C142.491 55.9104 141.888 55.7397 141.273 55.4026C141.215 55.3708 141.146 55.3655 141.084 55.3848C141.022 55.4066 140.97 55.4528 140.943 55.513L139.843 57.9271C139.791 58.0412 139.836 58.1751 139.945 58.2343C141.094 58.8564 142.131 59.122 143.412 59.122C145.809 59.122 147.133 58.0053 148.301 55.0012L153.932 40.4467C153.961 40.3735 153.952 40.2907 153.907 40.2258C153.863 40.1613 153.791 40.1225 153.712 40.1225H150.333C150.232 40.1225 150.141 40.1869 150.108 40.282L146.647 50.1717L142.855 40.2754C142.821 40.1834 142.732 40.1225 142.634 40.1225H137.088L137.089 40.1217ZM129.873 40.1074H126.628C126.496 40.1074 126.39 40.2143 126.39 40.3454V54.5099C126.39 54.6411 126.496 54.7479 126.628 54.7479H129.873C130.004 54.7479 130.111 54.6411 130.111 54.5099V40.3464C130.111 40.2832 130.086 40.2225 130.042 40.1779C129.997 40.1332 129.936 40.1082 129.873 40.1084L129.873 40.1074ZM128.269 33.658C126.983 33.658 125.94 34.6992 125.94 35.9853C125.94 37.2723 126.983 38.3147 128.269 38.3147C129.554 38.3147 130.597 37.2723 130.597 35.9853C130.597 34.6994 129.554 33.658 128.27 33.658H128.269ZM156.704 44.6616C155.419 44.6616 154.42 43.6297 154.42 42.3766C154.42 41.1235 155.432 40.0798 156.716 40.0798C158 40.0798 159 41.1115 159 42.3636C159 43.6167 157.987 44.6616 156.704 44.6616H156.704ZM156.716 40.307C155.546 40.307 154.661 41.2374 154.661 42.3766C154.661 43.5153 155.54 44.4331 156.705 44.4331C157.874 44.4331 158.761 43.5036 158.761 42.3636C158.761 41.2248 157.881 40.307 156.717 40.307H156.716ZM157.223 42.5985L157.869 43.5033H157.324L156.742 42.6733H156.242V43.5033H155.786V41.105H156.855C157.413 41.105 157.779 41.3901 157.779 41.8701C157.781 42.2633 157.553 42.5035 157.225 42.5985H157.223V42.5985ZM156.837 41.5165H156.242V42.2751H156.837C157.134 42.2751 157.311 42.1299 157.311 41.8954C157.311 41.6487 157.133 41.5165 156.837 41.5165H156.837V41.5165Z" fill="#12141D"/>
</g>
</svg>
