<svg width="128" height="128" viewBox="0 0 128 128" fill="none" xmlns="http://www.w3.org/2000/svg">
<g id="Item">
<g id="Oval" filter="url(#filter0_d_1_1769)">
<circle cx="64" cy="49" r="38" fill="white"/>
<circle cx="64" cy="49" r="38" stroke="white" stroke-width="2"/>
</g>
<g id="trello">
<path id="Shape" fill-rule="evenodd" clip-rule="evenodd" d="M79.0379 29H49.0869C46.3252 29 44.0891 31.2361 44.0891 33.9889L44.0885 33.9887C44.0847 33.9889 44.0847 34.0725 44.0857 37.5309C44.0868 41.2046 44.0891 48.6866 44.0891 63.9221C44.0891 66.6748 46.3252 68.9109 49.078 68.9109H79.029C81.7728 68.8931 83.9911 66.6659 83.9911 63.9221V33.9889C84 31.245 81.7817 29.0178 79.0379 29ZM61.6392 59.2272C61.6214 60.5367 60.5612 61.5969 59.2428 61.5969H51.8753C50.5568 61.6058 49.4788 60.5457 49.4699 59.2272V36.5813C49.4699 35.2628 50.539 34.1849 51.8664 34.1849H59.2517C60.5702 34.1849 61.6481 35.2539 61.6481 36.5813V59.2272H61.6392ZM76.4454 51.6459C77.7728 51.6459 78.8419 50.5679 78.8419 49.2494V36.5902C78.8419 35.2628 77.7639 34.1938 76.4454 34.1938H69.2205C67.902 34.1938 66.833 35.2717 66.833 36.5902V49.2494C66.833 50.5768 67.9109 51.6459 69.2294 51.6459H76.4454Z" fill="black"/>
</g>
</g>
<defs>
<filter id="filter0_d_1_1769" x="0" y="0" width="128" height="128" filterUnits="userSpaceOnUse" color-interpolation-filters="sRGB">
<feFlood flood-opacity="0" result="BackgroundImageFix"/>
<feColorMatrix in="SourceAlpha" type="matrix" values="0 0 0 0 0 0 0 0 0 0 0 0 0 0 0 0 0 0 127 0" result="hardAlpha"/>
<feOffset dy="15"/>
<feGaussianBlur stdDeviation="12.5"/>
<feColorMatrix type="matrix" values="0 0 0 0 0 0 0 0 0 0 0 0 0 0 0 0 0 0 0.06 0"/>
<feBlend mode="normal" in2="BackgroundImageFix" result="effect1_dropShadow_1_1769"/>
<feBlend mode="normal" in="SourceGraphic" in2="effect1_dropShadow_1_1769" result="shape"/>
</filter>
</defs>
</svg>
