<svg width="48" height="49" viewBox="0 0 48 49" fill="none" xmlns="http://www.w3.org/2000/svg">
<g id="Icons/Wish">
<path id="Templates/Elements/Icons/Wish" fill-rule="evenodd" clip-rule="evenodd" d="M23.6108 48.5C23.6108 42.1894 21.2505 36.6739 16.5383 31.9617C11.8261 27.2495 6.31056 24.8892 0 24.8892V24.119C6.31056 24.119 11.8261 21.7588 16.5383 17.0383C21.1539 12.3983 23.513 7.01151 23.6078 0.885576C23.6111 0.67292 23.7832 0.5 23.9959 0.5C24.2085 0.5 24.3806 0.672938 24.3839 0.885595C24.4783 7.03548 26.8374 12.4223 31.4534 17.0383C36.1656 21.7505 41.6812 24.1108 47.9917 24.1108V24.881C41.6812 24.881 36.1656 27.2412 31.4534 31.9534C26.7412 36.6739 24.381 42.1894 24.381 48.5" fill="white"/>
</g>
</svg>
